HIERARCHY
ROOT Hips
{
	OFFSET 0.00000 0.00000 0.00000
	CHANNELS 6 Xposition Yposition Zposition Zrotation Yrotation Xrotation 
	JOINT LHipJoint
	{
		OFFSET 0 0 0
		CHANNELS 3 Zrotation Yrotation Xrotation
		JOINT LeftUpLeg
		{
			OFFSET 3.13874 -1.57224 1.49786
			CHANNELS 3 Zrotation Yrotation Xrotation
			JOINT LeftLeg
			{
				OFFSET 2.10955 -5.79594 0.00000
				CHANNELS 3 Zrotation Yrotation Xrotation
				JOINT LeftFoot
				{
					OFFSET 2.41843 -6.64458 0.00000
					CHANNELS 3 Zrotation Yrotation Xrotation
					JOINT LeftToeBase
					{
						OFFSET 0.04713 -0.12948 1.66229
						CHANNELS 3 Zrotation Yrotation Xrotation
						End Site
						{
							OFFSET 0.00000 -0.00000 0.85167
						}
					}
				}
			}
		}
	}
	JOINT RHipJoint
	{
		OFFSET 0 0 0
		CHANNELS 3 Zrotation Yrotation Xrotation
		JOINT RightUpLeg
		{
			OFFSET -3.13988 -1.57224 1.49786
			CHANNELS 3 Zrotation Yrotation Xrotation
			JOINT RightLeg
			{
				OFFSET -2.15006 -5.90725 0.00000
				CHANNELS 3 Zrotation Yrotation Xrotation
				JOINT RightFoot
				{
					OFFSET -2.34496 -6.44273 0.00000
					CHANNELS 3 Zrotation Yrotation Xrotation
					JOINT RightToeBase
					{
						OFFSET -0.08699 -0.23900 1.55223
						CHANNELS 3 Zrotation Yrotation Xrotation
						End Site
						{
							OFFSET -0.00000 -0.00000 0.80281
						}
					}
				}
			}
		}
	}
	JOINT LowerBack
	{
		OFFSET 0 0 0
		CHANNELS 3 Zrotation Yrotation Xrotation
		JOINT Spine
		{
			OFFSET 0.01292 1.96517 -0.16495
			CHANNELS 3 Zrotation Yrotation Xrotation
			JOINT Spine1
			{
				OFFSET 0.02122 1.88666 0.19706
				CHANNELS 3 Zrotation Yrotation Xrotation
				JOINT Neck
				{
					OFFSET 0 0 0
					CHANNELS 3 Zrotation Yrotation Xrotation
					JOINT Neck1
					{
						OFFSET -0.01683 1.81591 0.07903
						CHANNELS 3 Zrotation Yrotation Xrotation
						JOINT Head
						{
							OFFSET 0.00815 1.74013 -0.47700
							CHANNELS 3 Zrotation Yrotation Xrotation
							End Site
							{
								OFFSET -0.00204 1.83225 -0.16933
							}
						}
					}
				}
				JOINT LeftShoulder
				{
					OFFSET 0 0 0
					CHANNELS 3 Zrotation Yrotation Xrotation
					JOINT LeftArm
					{
						OFFSET 3.38482 1.41533 0.19802
						CHANNELS 3 Zrotation Yrotation Xrotation
						JOINT LeftForeArm
						{
							OFFSET 4.32712 -0.00000 0.00000
							CHANNELS 3 Zrotation Yrotation Xrotation
							JOINT LeftHand
							{
								OFFSET 3.28587 -0.00000 -0.00000
								CHANNELS 3 Zrotation Yrotation Xrotation
								JOINT LeftFingerBase
								{
									OFFSET 0 0 0
									CHANNELS 3 Zrotation Yrotation Xrotation
									JOINT LeftHandIndex1
									{
										OFFSET 0.43316 -0.00000 -0.00000
										CHANNELS 3 Zrotation Yrotation Xrotation
										End Site
										{
											OFFSET 0.34922 -0.00000 -0.00000
										}
									}
								}
								JOINT LThumb
								{
									OFFSET 0 0 0
									CHANNELS 3 Zrotation Yrotation Xrotation
									End Site
									{
										OFFSET 0.35456 -0.00000 0.35456
									}
								}
							}
						}
					}
				}
				JOINT RightShoulder
				{
					OFFSET 0 0 0
					CHANNELS 3 Zrotation Yrotation Xrotation
					JOINT RightArm
					{
						OFFSET -3.09725 1.62858 -0.14144
						CHANNELS 3 Zrotation Yrotation Xrotation
						JOINT RightForeArm
						{
							OFFSET -4.29104 -0.00000 0.00000
							CHANNELS 3 Zrotation Yrotation Xrotation
							JOINT RightHand
							{
								OFFSET -3.22720 -0.00000 -0.00000
								CHANNELS 3 Zrotation Yrotation Xrotation
								JOINT RightFingerBase
								{
									OFFSET 0 0 0
									CHANNELS 3 Zrotation Yrotation Xrotation
									JOINT RightHandIndex1
									{
										OFFSET -0.54362 -0.00000 -0.00000
										CHANNELS 3 Zrotation Yrotation Xrotation
										End Site
										{
											OFFSET -0.43828 -0.00000 -0.00000
										}
									}
								}
								JOINT RThumb
								{
									OFFSET 0 0 0
									CHANNELS 3 Zrotation Yrotation Xrotation
									End Site
									{
										OFFSET -0.44497 -0.00000 0.44497
									}
								}
							}
						}
					}
				}
			}
		}
	}
}
MOTION
Frames: 15
Frame Time: .0083333
34.8202 15.4747 -0.882 0 0 0 0 0 0 -21 0 0 0 0 0 0 0 0 0 0 0 0 0 0 21 0 0 0 0 0 0 0 0 0 0 0 0 0 0 0 0 0 0 0 0 0 0 -16 0 0 21 0 0 11 0 0 0 -8 0 0 0 0 0 0 0 0 0 0 0 0 0 0 0 0 0 0 0 0 8 0 0 0 0 0 0 0 0 0 0 0 0 0 0 0 0 0
34.8202 15.4747 -0.8820 -53.0642 -79.2980 62.9015 0.0000 0.0000 0.0000 3.5701 -22.0107 -5.6268 0.1027 2.0665 5.6894 11.1237 4.6095 -65.4000 5.3983 -13.8187 -42.5161 0.0000 0.0000 0.0000 45.3324 14.3000 3.7054 -0.0394 1.2818 -3.5244 -1.7269 -14.9571 -34.0255 -0.1605 -2.5813 7.1152 6.6538 0.4613 6.9587 5.1723 1.8201 -9.7279 1.7471 0.3547 -14.7117 -10.4998 -10.3516 -15.5240 2.2579 -13.9633 32.2092 0.1345 -7.3038 14.6407 0.0000 -0.0000 0.0000 -89.1507 15.0256 19.0473 18.4374 -28.7136 -4.7575 -0.0000 -0.0000 8.7381 28.0916 30.2825 15.0645 -7.1250 0.0000 -0.0000 -3.9298 63.4397 -1.7593 0.0000 -0.0000 0.0000 66.3628 -20.6978 41.9448 -21.5637 32.4804 -6.3499 0.0000 -0.0000 -18.0961 -25.9817 -20.2882 9.5913 7.1250 -0.0000 -0.0000 2.5735 -52.3162 -0.4637
34.8166 15.4752 -0.8856 -53.2840 -79.3098 63.1724 0.0000 0.0000 0.0000 3.5978 -22.1875 -5.5600 0.1015 2.0546 5.6565 11.2407 4.4053 -65.7136 5.4097 -13.8308 -42.5640 0.0000 0.0000 0.0000 45.3617 14.3743 3.7219 -0.0398 1.2882 -3.5421 -1.6458 -14.9508 -33.5549 -0.1624 -2.5966 7.1575 6.6686 0.4671 6.9444 5.1623 1.8278 -9.7549 1.7276 0.3547 -14.7346 -10.4776 -10.3988 -15.4041 2.3838 -14.0666 31.9579 0.1767 -7.3293 14.5184 0.0000 -0.0000 0.0000 -89.1476 14.9721 18.9999 18.3931 -28.6575 -4.7362 -0.0000 -0.0000 8.7629 27.6413 28.6583 14.0989 -7.1250 0.0000 -0.0000 -3.6536 61.6158 -1.4786 0.0000 -0.0000 0.0000 66.3433 -20.8136 42.0059 -21.5513 32.4662 -6.3433 0.0000 -0.0000 -18.5429 -26.4329 -18.9240 9.1586 7.1250 -0.0000 -0.0000 1.8002 -50.9215 -0.2627
34.8116 15.4743 -0.8888 -53.6753 -79.3715 63.6057 0.0000 0.0000 0.0000 3.5817 -22.2219 -5.4544 0.0995 2.0342 5.6001 11.2838 4.4717 -65.8561 5.4186 -13.8402 -42.6011 0.0000 0.0000 0.0000 45.3645 14.4013 3.7307 -0.0400 1.2905 -3.5484 -1.3544 -15.3113 -32.1390 -0.0677 -1.6782 4.6172 6.6942 0.4870 6.9327 5.1391 1.8548 -9.7652 1.6826 0.3626 -14.7374 -10.5368 -10.4116 -15.3825 2.6127 -14.1342 31.8246 0.2678 -7.3332 14.4865 0.0000 -0.0000 0.0000 -89.1607 14.9430 18.9530 18.4103 -28.6793 -4.7445 -0.0000 -0.0000 8.8424 27.0434 27.5388 13.2799 -7.1250 0.0000 -0.0000 -3.8450 60.2851 -1.4348 0.0000 -0.0000 0.0000 66.3470 -20.8761 41.7262 -21.6892 32.6240 -6.4175 0.0000 -0.0000 -17.7433 -25.6515 -19.7895 9.2348 7.1250 -0.0000 -0.0000 2.7867 -51.7184 -0.4614
34.8052 15.4737 -0.8933 -54.0824 -79.4293 64.0396 0.0000 0.0000 0.0000 3.5862 -22.1444 -5.3885 0.0983 2.0224 5.5676 11.2803 4.5393 -65.8585 5.4244 -13.8463 -42.6253 0.0000 0.0000 0.0000 45.3547 14.2855 3.7016 -0.0409 1.3059 -3.5909 -1.1743 -15.5265 -31.2168 -0.0281 -1.0821 2.9748 6.8261 0.4814 6.9621 5.0859 1.8630 -9.7521 1.5477 0.3488 -14.7356 -10.6732 -10.3640 -15.6888 2.8581 -14.1065 32.0866 0.3629 -7.2960 14.7071 0.0000 -0.0000 0.0000 -89.1196 14.9616 18.9278 18.4972 -28.7892 -4.7863 -0.0000 -0.0000 8.8207 26.7794 28.0906 13.3678 -7.1250 0.0000 -0.0000 -4.4036 60.7999 -1.6975 0.0000 -0.0000 0.0000 66.3965 -20.8401 41.5726 -21.7522 32.6959 -6.4515 0.0000 -0.0000 -17.5075 -25.6764 -20.8598 9.7143 7.1250 -0.0000 -0.0000 3.0338 -52.8737 -0.5882
34.7996 15.4737 -0.9006 -54.3902 -79.4097 64.3815 0.0000 0.0000 0.0000 3.7170 -22.0969 -5.4452 0.1003 2.0422 5.6223 11.2532 4.4619 -65.7621 5.3855 -13.8052 -42.4628 0.0000 0.0000 0.0000 45.3854 14.0584 3.6076 -0.0429 1.3367 -3.6757 -1.1371 -15.4715 -30.9259 -0.0275 -1.0697 2.9405 6.9450 0.4622 6.9880 5.0696 1.8538 -9.7492 1.4655 0.3300 -14.7468 -10.6913 -10.3419 -15.8720 2.9433 -14.0890 32.1966 0.3885 -7.2734 14.8062 0.0000 -0.0000 0.0000 -89.0419 14.9867 18.9533 18.5447 -28.8490 -4.8092 -0.0000 -0.0000 8.6542 26.5550 28.0427 13.2224 -7.1250 0.0000 -0.0000 -4.6429 60.6935 -1.7783 0.0000 -0.0000 0.0000 66.4376 -20.8173 41.4987 -21.7640 32.7092 -6.4578 0.0000 -0.0000 -17.7755 -25.3447 -20.7226 9.5143 7.1250 -0.0000 -0.0000 3.3378 -52.6642 -0.6301
34.7923 15.4736 -0.9078 -54.5159 -79.4045 64.5499 0.0000 0.0000 0.0000 3.7927 -22.1753 -5.4479 0.1017 2.0565 5.6619 11.2767 4.3816 -65.8176 5.3753 -13.7944 -42.4200 0.0000 0.0000 0.0000 45.4372 14.0701 3.6714 -0.0465 1.3920 -3.8282 -1.1122 -15.5407 -30.8327 -0.0272 -1.0638 2.9245 6.9049 0.4611 6.9461 5.0891 1.8437 -9.7669 1.5123 0.3301 -14.7431 -10.6503 -10.3333 -15.7697 2.9723 -14.0934 32.0613 0.4035 -7.2694 14.7208 -0.0000 0.0000 0.0000 -89.0158 15.0235 19.1120 18.5250 -28.8241 -4.7997 -0.0000 -0.0000 8.6529 27.0332 28.3677 13.6277 -7.1250 0.0000 -0.0000 -4.2365 61.1547 -1.6687 -0.0000 0.0000 0.0000 66.4406 -20.8738 41.4907 -21.7165 32.6551 -6.4322 0.0000 -0.0000 -18.1935 -25.3310 -19.2130 8.8540 7.1250 -0.0000 -0.0000 2.9715 -51.0409 -0.4426
34.7821 15.4730 -0.9130 -54.8086 -79.4479 64.8663 0.0000 0.0000 0.0000 3.7871 -22.1911 -5.3458 0.1006 2.0453 5.6307 11.3193 4.4251 -65.9543 5.4142 -13.8356 -42.5827 0.0000 0.0000 0.0000 45.4899 14.1909 3.8518 -0.0507 1.4533 -3.9971 -1.1041 -15.6312 -30.8679 -0.0374 -1.2478 3.4309 6.8213 0.4824 6.8368 5.1104 1.8494 -9.7604 1.5800 0.3443 -14.6665 -10.6421 -10.3665 -15.5726 3.0223 -14.1655 31.8709 0.4252 -7.2979 14.6010 -0.0000 -0.0000 0.0000 -89.0190 15.0375 19.1138 18.4865 -28.7756 -4.7811 -0.0000 -0.0000 8.7197 27.3840 28.9544 14.0777 -7.1250 0.0000 -0.0000 -4.1041 61.8602 -1.6850 -0.0000 -0.0000 0.0000 66.4469 -20.8639 41.3643 -21.6259 32.5517 -6.3834 0.0000 -0.0000 -18.3296 -24.4287 -19.2081 8.4994 7.1250 -0.0000 -0.0000 3.8722 -50.8791 -0.5616
34.7715 15.4721 -0.9167 -55.2393 -79.4738 65.3246 0.0000 0.0000 0.0000 3.8180 -22.0806 -5.2865 0.0994 2.0333 5.5977 11.2900 4.5427 -65.8882 5.4171 -13.8387 -42.5950 0.0000 0.0000 0.0000 45.5319 14.1008 3.9601 -0.0559 1.5259 -4.1971 -1.0438 -15.8559 -30.6978 -0.0433 -1.3435 3.6946 6.8605 0.4892 6.7042 5.1058 1.8457 -9.7417 1.5516 0.3396 -14.5576 -10.5526 -10.4538 -15.4294 2.9354 -14.2962 31.7419 0.3644 -7.3591 14.5050 -0.0000 -0.0000 0.0000 -88.9744 15.0010 19.2699 18.4599 -28.7420 -4.7683 -0.0000 -0.0000 8.7076 29.2402 31.0631 16.1113 -7.1250 0.0000 -0.0000 -2.9116 64.5755 -1.3802 -0.0000 -0.0000 0.0000 66.4853 -20.8049 41.3464 -21.6614 32.5922 -6.4025 0.0000 -0.0000 -18.1261 -29.1665 -24.1058 12.8410 7.1250 -0.0000 -0.0000 0.1903 -57.1108 -0.0565
34.7590 15.4704 -0.9193 -55.5316 -79.4983 65.6669 0.0000 0.0000 0.0000 3.8454 -21.9394 -5.2866 0.0991 2.0301 5.5888 11.2049 4.8151 -65.6849 5.4443 -13.8673 -42.7086 0.0000 0.0000 0.0000 45.5438 13.8830 4.0113 -0.0613 1.5972 -4.3937 -1.0507 -15.5428 -30.4339 -0.0399 -1.2886 3.5434 6.9569 0.4853 6.5747 5.0783 1.8337 -9.7390 1.4684 0.3224 -14.4687 -10.4527 -10.5147 -15.4479 2.7921 -14.3677 31.7585 0.2776 -7.3968 14.4984 -0.0000 0.0000 0.0000 -88.9019 14.9880 19.3873 18.4122 -28.6818 -4.7454 -0.0000 -0.0000 8.5921 27.7693 29.3684 14.4794 -7.1250 0.0000 -0.0000 -3.8470 62.3955 -1.6278 -0.0000 0.0000 0.0000 66.5690 -20.7530 41.1569 -21.7226 32.6621 -6.4355 0.0000 -0.0000 -17.5702 -29.8682 -26.4828 14.3642 7.1250 -0.0000 -0.0000 0.1275 -59.8579 -0.0462
34.7454 15.4692 -0.9231 -55.8435 -79.5503 66.0501 0.0000 0.0000 0.0000 3.8819 -21.7148 -5.3870 0.1013 2.0523 5.6503 11.0409 5.3219 -65.2918 5.4521 -13.8755 -42.7412 0.0000 0.0000 0.0000 45.5432 13.7693 4.0155 -0.0630 1.6200 -4.4565 -0.9946 -15.3850 -29.9053 -0.0136 -0.7540 2.0721 7.0060 0.4921 6.4851 5.0494 1.8359 -9.7727 1.4097 0.3150 -14.4499 -10.4177 -10.5213 -15.4014 2.7741 -14.3804 31.7020 0.2676 -7.4023 14.4586 0.0000 -0.0000 0.0000 -88.8305 15.0966 19.3848 18.4080 -28.6764 -4.7434 -0.0000 -0.0000 8.5381 27.8127 29.4253 14.5294 -7.1250 0.0000 -0.0000 -3.8230 62.4667 -1.6240 0.0000 -0.0000 0.0000 66.6755 -20.8182 40.9781 -21.8362 32.7914 -6.4969 0.0000 -0.0000 -17.3063 -29.0565 -26.9343 14.1262 7.1250 -0.0000 -0.0000 1.2451 -60.1421 -0.4600
34.7333 15.4693 -0.9274 -56.2817 -79.6302 66.5547 0.0000 0.0000 0.0000 3.9348 -21.1016 -5.8125 0.1166 2.2015 6.0628 10.6579 6.0780 -64.2939 5.4654 -13.8894 -42.7963 0.0000 0.0000 0.0000 45.4749 13.4970 3.8365 -0.0614 1.5982 -4.3966 -1.6664 -13.6569 -32.5901 -0.1389 -2.4024 6.6190 7.0281 0.5066 6.4568 5.0209 1.8531 -9.8088 1.3641 0.3170 -14.4733 -10.3890 -10.4983 -15.3458 2.7772 -14.3615 31.6778 0.2725 -7.3933 14.4314 0.0000 -0.0000 0.0000 -88.7470 15.2103 19.3746 18.4428 -28.7205 -4.7601 -0.0000 -0.0000 8.3654 27.6185 29.3839 14.3976 -7.1250 0.0000 -0.0000 -4.0374 62.3720 -1.7063 0.0000 -0.0000 0.0000 66.8014 -20.9293 40.9369 -21.9179 32.8842 -6.5412 0.0000 -0.0000 -17.6091 -28.2398 -25.0951 12.8325 7.1250 -0.0000 -0.0000 1.5359 -57.9685 -0.4875
34.7206 15.4681 -0.9309 -56.6574 -79.7738 66.9817 0.0000 0.0000 0.0000 3.9146 -19.9382 -6.7278 0.1554 2.5397 6.9997 9.8496 8.2527 -62.3521 5.7495 -14.1811 -43.9679 0.0000 0.0000 0.0000 45.2438 12.7279 3.4017 -0.0583 1.5575 -4.2844 -1.8528 -12.5101 -32.7863 -0.1672 -2.6346 7.2631 6.9961 0.5263 6.4614 4.9844 1.8737 -9.8286 1.3380 0.3268 -14.4982 -10.3827 -10.4644 -15.4176 2.7914 -14.3212 31.7607 0.2778 -7.3722 14.4817 0.0000 0.0000 0.0000 -88.7138 15.2593 19.3120 18.4588 -28.7407 -4.7678 -0.0000 -0.0000 8.2628 27.3715 29.0695 14.1195 -7.1250 0.0000 -0.0000 -4.1764 61.9777 -1.7263 0.0000 0.0000 0.0000 66.9048 -21.0020 41.0505 -21.9332 32.9014 -6.5495 0.0000 -0.0000 -18.1626 -26.7759 -20.6298 10.0812 7.1250 -0.0000 -0.0000 1.8412 -52.8349 -0.3550
34.7051 15.4648 -0.9347 -57.0397 -79.8882 67.4134 0.0000 0.0000 0.0000 3.9643 -18.6149 -8.0073 0.2175 3.0020 8.2844 8.7648 11.0621 -59.8226 6.2193 -14.6375 -45.8555 0.0000 0.0000 0.0000 45.0236 11.7795 2.8847 -0.0539 1.4978 -4.1197 -1.8178 -11.6908 -31.9583 -0.0995 -2.0347 5.6015 6.9944 0.5337 6.4570 4.9510 1.8809 -9.8743 1.3028 0.3257 -14.5490 -10.3389 -10.3982 -15.3203 2.8521 -14.2554 31.6556 0.3175 -7.3350 14.4092 -0.0000 0.0000 0.0000 -88.6985 15.3875 19.2305 18.4488 -28.7280 -4.7630 -0.0000 -0.0000 8.2972 27.4081 29.0386 14.1275 -7.1250 0.0000 -0.0000 -4.1171 61.9549 -1.6995 -0.0000 0.0000 0.0000 66.9866 -21.1498 41.1613 -21.9868 32.9621 -6.5786 0.0000 -0.0000 -18.3446 -25.0799 -16.6302 7.6288 7.1250 -0.0000 -0.0000 2.6665 -48.2131 -0.2115
34.6871 15.4605 -0.9392 -57.6553 -79.9133 68.0081 0.0000 0.0000 0.0000 4.1510 -17.3586 -9.4864 0.3139 3.6015 9.9580 7.7492 12.7885 -57.2234 6.6992 -15.0732 -47.7272 0.0000 0.0000 0.0000 44.9405 10.8753 2.4722 -0.0490 1.4283 -3.9282 -1.8330 -10.8556 -31.4385 -0.0671 -1.6707 4.5964 7.1379 0.5231 6.4860 4.9236 1.8859 -9.8971 1.1935 0.3086 -14.5924 -10.2172 -10.3173 -15.1129 2.8677 -14.1745 31.4501 0.3407 -7.2921 14.2551 -0.0000 0.0000 0.0000 -88.6589 15.5367 19.2084 18.4286 -28.7025 -4.7533 -0.0000 -0.0000 8.2651 28.1419 29.3319 14.6829 -7.1250 0.0000 -0.0000 -3.3765 62.4558 -1.4332 -0.0000 0.0000 0.0000 67.1108 -21.2730 41.1320 -22.0160 32.9951 -6.5946 0.0000 -0.0000 -18.2566 -25.3362 -17.9271 8.2918 7.1250 -0.0000 -0.0000 2.6786 -49.6555 -0.3077
